<svg width="167" height="34" viewBox="0 0 167 34" fill="none" xmlns="http://www.w3.org/2000/svg">
<circle cx="17" cy="17" r="17" fill="#6B03F2"/>
<path d="M16.11 28.0001C15.9941 28 15.879 27.9797 15.77 27.9401C15.5598 27.8631 15.3815 27.7178 15.2636 27.5274C15.1458 27.337 15.0952 27.1126 15.12 26.8901L15.89 19.8001H10C9.81837 19.8004 9.64006 19.7512 9.48426 19.6577C9.32845 19.5643 9.20104 19.4302 9.11571 19.2698C9.03038 19.1094 8.99035 18.9288 8.99992 18.7474C9.0095 18.566 9.06831 18.3906 9.17004 18.2401L17.06 6.4401C17.1848 6.25544 17.3677 6.11775 17.5797 6.04891C17.7917 5.98006 18.0206 5.984 18.23 6.0601C18.4314 6.13486 18.6034 6.27248 18.7204 6.45259C18.8375 6.63269 18.8935 6.84571 18.88 7.0601L18.11 14.2001H24C24.1817 14.1998 24.36 14.249 24.5158 14.3425C24.6716 14.4359 24.799 14.57 24.8844 14.7304C24.9697 14.8908 25.0097 15.0714 25.0002 15.2528C24.9906 15.4342 24.9318 15.6096 24.83 15.7601L16.94 27.5601C16.8483 27.6958 16.7247 27.8069 16.5799 27.8836C16.4352 27.9603 16.2738 28.0003 16.11 28.0001Z" fill="white"/>
<path d="M58.6 29L54.22 21.05H52.99V29H47.86V7.94H56.47C58.13 7.94 59.54 8.23 60.7 8.81C61.88 9.39 62.76 10.19 63.34 11.21C63.92 12.21 64.21 13.33 64.21 14.57C64.21 15.97 63.81 17.22 63.01 18.32C62.23 19.42 61.07 20.2 59.53 20.66L64.39 29H58.6ZM52.99 17.42H56.17C57.11 17.42 57.81 17.19 58.27 16.73C58.75 16.27 58.99 15.62 58.99 14.78C58.99 13.98 58.75 13.35 58.27 12.89C57.81 12.43 57.11 12.2 56.17 12.2H52.99V17.42ZM83.2103 20.36C83.2103 20.84 83.1803 21.34 83.1203 21.86H71.5103C71.5903 22.9 71.9203 23.7 72.5003 24.26C73.1003 24.8 73.8303 25.07 74.6903 25.07C75.9703 25.07 76.8603 24.53 77.3603 23.45H82.8203C82.5403 24.55 82.0303 25.54 81.2903 26.42C80.5703 27.3 79.6603 27.99 78.5603 28.49C77.4603 28.99 76.2303 29.24 74.8703 29.24C73.2303 29.24 71.7703 28.89 70.4903 28.19C69.2103 27.49 68.2103 26.49 67.4903 25.19C66.7703 23.89 66.4103 22.37 66.4103 20.63C66.4103 18.89 66.7603 17.37 67.4603 16.07C68.1803 14.77 69.1803 13.77 70.4603 13.07C71.7403 12.37 73.2103 12.02 74.8703 12.02C76.4903 12.02 77.9303 12.36 79.1903 13.04C80.4503 13.72 81.4303 14.69 82.1303 15.95C82.8503 17.21 83.2103 18.68 83.2103 20.36ZM77.9603 19.01C77.9603 18.13 77.6603 17.43 77.0603 16.91C76.4603 16.39 75.7103 16.13 74.8103 16.13C73.9503 16.13 73.2203 16.38 72.6203 16.88C72.0403 17.38 71.6803 18.09 71.5403 19.01H77.9603ZM88.3166 29.24C87.4166 29.24 86.6766 28.98 86.0966 28.46C85.5366 27.92 85.2566 27.26 85.2566 26.48C85.2566 25.68 85.5366 25.01 86.0966 24.47C86.6766 23.93 87.4166 23.66 88.3166 23.66C89.1966 23.66 89.9166 23.93 90.4766 24.47C91.0566 25.01 91.3466 25.68 91.3466 26.48C91.3466 27.26 91.0566 27.92 90.4766 28.46C89.9166 28.98 89.1966 29.24 88.3166 29.24ZM88.3166 17.03C87.4166 17.03 86.6766 16.77 86.0966 16.25C85.5366 15.71 85.2566 15.05 85.2566 14.27C85.2566 13.47 85.5366 12.8 86.0966 12.26C86.6766 11.72 87.4166 11.45 88.3166 11.45C89.1966 11.45 89.9166 11.72 90.4766 12.26C91.0566 12.8 91.3466 13.47 91.3466 14.27C91.3466 15.05 91.0566 15.71 90.4766 16.25C89.9166 16.77 89.1966 17.03 88.3166 17.03Z" fill="#6C03F2"/>
<path d="M93.572 18.44C93.572 16.36 94.022 14.51 94.922 12.89C95.822 11.25 97.072 9.98 98.672 9.08C100.292 8.16 102.122 7.7 104.162 7.7C106.662 7.7 108.802 8.36 110.582 9.68C112.362 11 113.552 12.8 114.152 15.08H108.512C108.092 14.2 107.492 13.53 106.712 13.07C105.952 12.61 105.082 12.38 104.102 12.38C102.522 12.38 101.242 12.93 100.262 14.03C99.282 15.13 98.792 16.6 98.792 18.44C98.792 20.28 99.282 21.75 100.262 22.85C101.242 23.95 102.522 24.5 104.102 24.5C105.082 24.5 105.952 24.27 106.712 23.81C107.492 23.35 108.092 22.68 108.512 21.8H114.152C113.552 24.08 112.362 25.88 110.582 27.2C108.802 28.5 106.662 29.15 104.162 29.15C102.122 29.15 100.292 28.7 98.672 27.8C97.072 26.88 95.822 25.61 94.922 23.99C94.022 22.37 93.572 20.52 93.572 18.44ZM116.274 20.6C116.274 18.88 116.594 17.37 117.234 16.07C117.894 14.77 118.784 13.77 119.904 13.07C121.024 12.37 122.274 12.02 123.654 12.02C124.834 12.02 125.864 12.26 126.744 12.74C127.644 13.22 128.334 13.85 128.814 14.63V12.26H133.944V29H128.814V26.63C128.314 27.41 127.614 28.04 126.714 28.52C125.834 29 124.804 29.24 123.624 29.24C122.264 29.24 121.024 28.89 119.904 28.19C118.784 27.47 117.894 26.46 117.234 25.16C116.594 23.84 116.274 22.32 116.274 20.6ZM128.814 20.63C128.814 19.35 128.454 18.34 127.734 17.6C127.034 16.86 126.174 16.49 125.154 16.49C124.134 16.49 123.264 16.86 122.544 17.6C121.844 18.32 121.494 19.32 121.494 20.6C121.494 21.88 121.844 22.9 122.544 23.66C123.264 24.4 124.134 24.77 125.154 24.77C126.174 24.77 127.034 24.4 127.734 23.66C128.454 22.92 128.814 21.91 128.814 20.63ZM142.785 15.05C143.385 14.13 144.135 13.41 145.035 12.89C145.935 12.35 146.935 12.08 148.035 12.08V17.51H146.625C145.345 17.51 144.385 17.79 143.745 18.35C143.105 18.89 142.785 19.85 142.785 21.23V29H137.655V12.26H142.785V15.05ZM159.817 24.65V29H157.207C155.347 29 153.897 28.55 152.857 27.65C151.817 26.73 151.297 25.24 151.297 23.18V16.52H149.257V12.26H151.297V8.18H156.427V12.26H159.787V16.52H156.427V23.24C156.427 23.74 156.547 24.1 156.787 24.32C157.027 24.54 157.427 24.65 157.987 24.65H159.817Z" fill="black"/>
</svg>
