<svg width="1356" height="1383" viewBox="0 0 1356 1383" fill="none" xmlns="http://www.w3.org/2000/svg">
<rect width="1745" height="1381" fill="black" fill-opacity="0" transform="translate(-390 1)"></rect>
<path d="M618.968 656.727C658.134 533.35 498.16 583.483 413.278 623.972C348.341 655.021 421.777 668.669 363.3 699.036C304.823 729.403 369.42 766.935 413.278 792.866C457.136 818.797 570.01 810.949 618.968 656.727Z" stroke="#A8A8AD"></path>
<path d="M566.01 670.287C589.977 595.019 492.083 625.603 440.14 650.304C400.403 669.246 445.341 677.572 409.557 696.098C373.773 714.623 413.302 737.52 440.14 753.34C466.979 769.159 536.051 764.372 566.01 670.287Z" stroke="#7D7D85"></path>
<path d="M697.725 636.607C759.495 441.841 507.198 520.983 373.329 584.9C270.916 633.914 386.734 655.459 294.509 703.397C202.284 751.334 304.16 810.582 373.329 851.518C442.498 892.453 620.514 880.065 697.725 636.607Z" stroke="#D4D4D6"></path>
<path d="M825.367 604.241C923.769 294.633 521.846 420.439 308.584 522.044C145.434 599.959 329.939 634.208 183.019 710.411C36.0985 786.615 198.394 880.798 308.584 945.871C418.774 1010.94 702.364 991.25 825.367 604.241Z" stroke="#D4D4D6"></path>
<path d="M974.734 566.188C1116 121.563 538.987 302.233 232.819 448.146C-1.40592 560.039 263.476 609.224 52.5514 718.659C-158.373 828.093 74.625 963.35 232.819 1056.8C391.012 1150.25 798.146 1121.97 974.734 566.188Z" stroke="#E9E9EB"></path>
<path d="M1151.26 521.136C1343.19 -83.3362 559.244 162.286 143.278 360.657C-174.945 512.778 184.93 579.645 -101.637 728.422C-388.204 877.2 -71.6474 1061.08 143.278 1188.13C358.203 1315.18 911.343 1276.73 1151.26 521.136Z" stroke="#F4F4F5"></path>
<path d="M1317.85 478.584C1557.6 -276.87 578.361 30.1028 58.7756 278.021C-338.717 468.138 110.804 551.706 -247.149 737.645C-605.101 923.583 -209.688 1153.39 58.7756 1312.17C327.24 1470.95 1018.17 1422.9 1317.85 478.584Z" stroke="#F4F4F5"></path>
</svg>